<?xml version="1.0" encoding="UTF-8"?>
<svg id="Layer_2" data-name="Layer 2" xmlns="http://www.w3.org/2000/svg" viewBox="0 0 187.22 184">
  <defs>
    <style>
      .cls-1 {
        fill: #fff;
      }

      .cls-2 {
        fill: none;
      }

      .cls-3 {
        fill: #adcff1;
      }
    </style>
  </defs>
  <g id="Capa_1" data-name="Capa 1">
    <g>
      <circle class="cls-2" cx="23.69" cy="70.21" r="7.9"/>
      <path class="cls-1" d="M23.69,81.32c-6.14,0-10.82-4.97-10.82-10.82,0-6.14,4.97-10.82,10.82-10.82s10.82,4.97,10.82,10.82-4.68,10.82-10.82,10.82ZM23.69,65.23c-2.93,0-4.97,2.34-4.97,4.97s2.34,4.97,4.97,4.97,4.97-2.34,4.97-4.97-2.05-4.97-4.97-4.97Z"/>
      <circle class="cls-2" cx="76.93" cy="40.08" r="7.9"/>
      <g>
        <path class="cls-1" d="M76.93,50.9c-6.14,0-10.82-4.97-10.82-10.82,0-6.14,4.97-10.82,10.82-10.82s10.82,4.97,10.82,10.82c.29,6.14-4.68,10.82-10.82,10.82ZM76.93,35.1c-2.93,0-4.97,2.34-4.97,4.97s2.34,4.97,4.97,4.97,4.97-2.34,4.97-4.97-2.05-4.97-4.97-4.97Z"/>
        <polygon class="cls-1" points="5.27 161.48 .59 157.97 46.8 99.75 111.16 117.01 181.95 31.3 186.63 35.1 113.21 123.45 48.85 106.48 5.27 161.48"/>
      </g>
      <path class="cls-2" d="M34.52,88.64H12.87c-5.56,0-9.95,4.39-9.95,9.95v19.6h7.61v32.18l33.93-42.71v-9.07c0-5.56-4.39-9.95-9.95-9.95Z"/>
      <path class="cls-1" d="M7.61,158.55v-37.44H0v-22.52c0-7.02,5.85-12.87,12.87-12.87h21.94c7.02,0,12.87,5.85,12.87,12.87v9.95L7.61,158.55ZM5.85,115.26h7.61v26.62l28.08-35.4v-7.9c0-3.8-3.22-7.02-7.02-7.02H12.87c-3.8,0-7.02,3.22-7.02,7.02v16.67Z"/>
      <path class="cls-2" d="M97.7,88.05v-19.6c0-5.56-4.39-9.95-9.95-9.95h-21.94c-5.56,0-9.95,4.39-9.95,9.95v19.6h7.61v19.31l26.62,7.02v-26.33h7.61Z"/>
      <path class="cls-1" d="M93.02,118.18l-32.47-8.48v-18.72h-7.61v-22.52c0-7.02,5.85-12.87,12.87-12.87h21.94c7.02,0,12.87,5.85,12.87,12.87v22.52h-7.61v27.21h0ZM66.7,105.02l20.77,5.56v-25.45h7.61v-16.67c0-3.8-3.22-7.02-7.02-7.02h-21.94c-3.8,0-7.02,3.22-7.02,7.02v16.67h7.61v19.89h0Z"/>
      <path class="cls-3" d="M143.63,58.51h7.61v-19.6c0-5.56-4.39-9.95-9.95-9.95h-21.94c-5.56,0-9.95,4.39-9.95,9.95v19.6h7.61v55.87l26.62-31.89v-23.99Z"/>
      <path class="cls-1" d="M114.09,122.57v-61.14h-7.61v-22.52c0-7.02,5.85-12.87,12.87-12.87h21.94c7.02,0,12.87,5.85,12.87,12.87v22.52h-7.61v21.94l-32.47,39.2ZM112.33,55.58h7.61v50.9l20.77-24.86v-25.74h7.61v-16.67c0-3.8-3.22-7.02-7.02-7.02h-21.94c-3.8,0-7.02,3.22-7.02,7.02v16.38h0Z"/>
      <circle class="cls-2" cx="130.17" cy="10.53" r="7.9"/>
      <g>
        <path class="cls-1" d="M130.17,21.65c-6.14,0-10.82-4.97-10.82-10.82,0-6.14,4.97-10.82,10.82-10.82,6.14,0,10.82,4.97,10.82,10.82.29,5.85-4.68,10.82-10.82,10.82ZM130.17,5.56c-2.93,0-4.97,2.34-4.97,4.97s2.34,5.27,4.97,5.27c2.93,0,4.97-2.34,4.97-4.97s-2.05-5.27-4.97-5.27Z"/>
        <polygon class="cls-1" points="187.22 46.22 181.37 46.22 181.37 35.98 171.13 35.98 171.13 30.13 187.22 30.13 187.22 46.22"/>
      </g>
      <rect class="cls-1" x="127.25" y="45.05" width="5.85" height="5.85"/>
      <rect class="cls-1" x="127.25" y="62.6" width="5.85" height="5.85"/>
      <rect class="cls-1" x="74.01" y="71.38" width="5.85" height="5.85"/>
      <rect class="cls-1" x="20.77" y="100.34" width="5.85" height="5.85"/>
      <g>
        <rect class="cls-1" x="12.87" y="143.63" width="5.85" height="40.37"/>
        <path class="cls-1" d="M44.46,184h-5.85v-4.1h5.85v4.1ZM44.46,174.05h-5.85v-5.85h5.85v5.85ZM44.46,162.35h-5.85v-5.85h5.85v5.85ZM44.46,150.65h-5.85v-5.85h5.85v5.85ZM44.46,138.95h-5.85v-5.85h5.85v5.85ZM44.46,127.25h-5.85v-5.85h5.85v5.85Z"/>
      </g>
      <g>
        <rect class="cls-1" x="64.65" y="109.7" width="5.85" height="74.3"/>
        <path class="cls-1" d="M96.53,184h-5.85v-4.1h5.85v4.1ZM96.53,174.05h-5.85v-5.85h5.85v5.85ZM96.53,162.35h-5.85v-5.85h5.85v5.85ZM96.53,150.65h-5.85v-5.85h5.85v5.85ZM96.53,138.95h-5.85v-5.85h5.85v5.85ZM96.53,127.25h-5.85v-5.85h5.85v5.85Z"/>
      </g>
      <g>
        <rect class="cls-1" x="116.43" y="111.45" width="5.85" height="72.55"/>
        <path class="cls-1" d="M148.31,181.07h-5.85v-5.85h5.85v5.85ZM148.31,169.37h-5.85v-5.85h5.85v5.85ZM148.31,157.67h-5.85v-5.85h5.85v5.85ZM148.31,145.97h-5.85v-5.85h5.85v5.85ZM148.31,134.27h-5.85v-5.85h5.85v5.85ZM148.31,122.57h-5.85v-5.85h5.85v5.85ZM148.31,110.87h-5.85v-5.85h5.85v5.85ZM148.31,99.17h-5.85v-5.85h5.85v5.85Z"/>
      </g>
      <rect class="cls-1" x="168.5" y="48.85" width="5.85" height="135.15"/>
    </g>
  </g>
</svg>