<?xml version="1.0" encoding="UTF-8"?>
<svg id="Layer_1" xmlns="http://www.w3.org/2000/svg" version="1.1" viewBox="0 0 792 360">
  <!-- Generator: Adobe Illustrator 29.0.1, SVG Export Plug-In . SVG Version: 2.1.0 Build 192)  -->
  <defs>
    <style>
      .st0, .st1 {
        fill: #fff;
      }

      .st1 {
        fill-rule: evenodd;
      }

      .st2 {
        fill: #ed1c24;
      }
    </style>
  </defs>
  <rect class="st2" x="308.8" y="324.9" width="174.4" height="8.2"/>
  <g>
    <path class="st1" d="M422.6,80.4c32.4,11.2,55.8,42.6,55.8,79.5h-12.5c-1.8-21.4-7.9-39.7-17.5-54.3-6.9-10.5-15.6-19-25.8-25.2h0Z"/>
    <path class="st1" d="M457.9,159.9c-1.7-19.7-7.4-36.6-16.2-49.9-7.9-11.9-18.3-21-30.6-26.8,9.6,11.7,15.6,24.1,19.4,36.3,4.4,14.2,5.7,28.2,5.8,40.4h21.6Z"/>
    <path class="st1" d="M428.4,159.9c0-11.6-1.3-24.7-5.5-38.1-4.1-13.1-11-26.5-22.6-38.8v76.9h28.1Z"/>
    <path class="st1" d="M392.4,159.9h-28c0-11.6,1.3-24.7,5.5-38.1,4.1-13.1,11-26.5,22.6-38.8v76.9h-.1Z"/>
    <path class="st1" d="M356.4,159.9c0-12.2,1.4-26.2,5.8-40.4,3.8-12.2,9.9-24.6,19.4-36.3-12.3,5.7-22.8,14.8-30.6,26.8-8.8,13.3-14.5,30.2-16.2,49.9h21.6Z"/>
    <path class="st1" d="M326.9,159.9c1.8-21.4,7.9-39.7,17.5-54.3,6.9-10.5,15.6-19,25.8-25.2-32.4,11.2-55.8,42.6-55.8,79.6h12.5Z"/>
    <path class="st1" d="M335.2,171.1v8.2c0,.6-.5,1.2-1.2,1.2h-6.7c-.6,0-1.2-.5-1.2-1.2v-8.2h9.1Z"/>
    <path class="st1" d="M365,171.1v8.2c0,.6-.5,1.2-1.2,1.2h-6.7c-.6,0-1.2-.5-1.2-1.2v-8.2h9.1Z"/>
    <path class="st1" d="M400.9,171.1v8.2c0,.6-.5,1.2-1.2,1.2h-6.7c-.6,0-1.2-.5-1.2-1.2v-8.2h9.1Z"/>
    <path class="st1" d="M427.8,171.1v8.2c0,.6.5,1.2,1.2,1.2h6.7c.6,0,1.2-.5,1.2-1.2v-8.2h-9.1Z"/>
    <path class="st1" d="M457.5,171.1v8.2c0,.6.5,1.2,1.2,1.2h6.7c.6,0,1.2-.5,1.2-1.2v-8.2h-9.1Z"/>
    <path class="st1" d="M465.4,162.4h-6.7c-.6,0-1.2.5-1.2,1.2v2.4h-20.8v-2.4c0-.6-.5-1.2-1.2-1.2h-6.7c-.6,0-1.2.5-1.2,1.2v2.4h-26.9v-2.4c0-.6-.5-1.2-1.2-1.2h-6.7c-.6,0-1.2.5-1.2,1.2v2.4h-26.9v-2.4c0-.6-.5-1.2-1.2-1.2h-6.7c-.6,0-1.2.5-1.2,1.2v2.4h-20.8v-2.4c0-.6-.5-1.2-1.2-1.2h-6.7c-.6,0-1.2.5-1.2,1.2v2.4h-17.1v3.1h174.3v-3.1h-16.9v-2.4c0-.6-.5-1.2-1.1-1.2h.5Z"/>
    <path class="st1" d="M380.2,74.9h32c.3,0,.5.2.5.5v1.8c0,.3-.2.5-.5.5h-32c-.3,0-.5-.2-.5-.5v-1.8c0-.3.2-.5.5-.5h0Z"/>
    <path class="st1" d="M380.2,50.5h32c.3,0,.5.2.5.5v1.8c0,.3-.2.5-.5.5h-32c-.3,0-.5-.2-.5-.5v-1.8c0-.3.2-.5.5-.5h0Z"/>
    <path class="st1" d="M386.1,54.8h3.7c.5,0,.9.4.9,1v16.7c0,.5-.4.9-.9.9h-3.7c-.5,0-.9-.4-.9-1v-16.7c0-.5.4-.9.9-.9h0Z"/>
    <path class="st1" d="M394.5,54.8h3.7c.5,0,.9.4.9,1v16.7c0,.5-.4.9-.9.9h-3.7c-.5,0-.9-.4-.9-1v-16.7c0-.5.4-.9.9-.9h0Z"/>
    <path class="st1" d="M402.6,54.8h3.7c.5,0,.9.4.9,1v16.7c0,.5-.4.9-.9.9h-3.7c-.5,0-.9-.4-.9-1v-16.7c0-.5.4-.9.9-.9h0Z"/>
    <path class="st1" d="M396.7,35.8c6.8.2,12.3,5.8,12.3,12.7s0,.3,0,.5h-25.5v-.5c0-6.9,5.5-12.5,12.3-12.7v-1.8h-3.7v-2.4h1.5v1.5h2.2v-3.9h-.3v-2.4h1.5v2.4h-.3v3.9h2.3v-1.5h1.5v2.4h-3.8v1.8h0Z"/>
    <rect class="st0" x="309.1" y="183" width="174.3" height="6.9"/>
  </g>
  <g>
    <path class="st1" d="M51.2,295.2v-.2h0c-1.1,0-2.5-.5-4-2.4l-7.2-9c-2.1-2.6-3.5-3.5-5.5-3.5v-.2c4-.2,8.6-3,8.6-8.6s-4.9-8.9-12.2-8.9-5.6.3-9.2.3h-5.5c-.4,0-.7,1.6-.3,1.6,2.3.6,4,1.6,4,4.7v21.5c0,3-1.5,4-4,4.4-.4,0,0,1.6.3,1.6h14.6c.4,0,.6-1.6.3-1.6-3.1-.4-5.4-1-5.4-4.4v-9.4c3.4,0,5.8.4,7.9,3.1l7.4,9.6c2.9,3.7,7.1,3.9,10.1,2.8.3,0,.4-1.4,0-1.4ZM27.4,278.8h-1.5v-9.9c0-2.7.9-3.9,3.8-3.9,4.3,0,7.6,2.6,7.6,7.7s-2.8,6.1-9.9,6.1Z"/>
    <path class="st1" d="M59.4,296.3c4.4-.4,9.7-.3,14.1-.3s6.7.1,9.4.1,5.1-4.9,5.1-7.3-1.3-1-1.6-.5c-1.2,1.8-4.1,5.2-11.3,5.2s-5.2-1-5.2-3.8v-8.1c0-1.3.6-1.5,1.6-1.5h.7c2.8,0,5.2.6,6.4,2.2.5.7,1.3.8,1.6,0l2.8-6.1c.4-1-.6-1-1.1-.6-2,1.8-5.3,2.2-9.3,2.2h-1.1c-1,0-1.6-.2-1.6-1.5v-7.9c0-2.5,1.1-3.4,4.5-3.4,6,0,7.5,1.4,8.2,3.7.2.7,1.4.7,1.6,0l1.2-4.6c.2-1.1.2-1.9-.9-1.9-3.9.1-7.1.3-11.5.3s-9,.1-12.5.1-.6,1.6-.2,1.6c2.1.5,4.1,1.4,4.1,4.5v21.4c0,3.6-2.2,4-5,4.7-.4.1-.2,1.8.3,1.7v-.3h-.3,0Z"/>
    <path class="st1" d="M112.3,262.3c-7.5,0-5.5.3-9,.3h-5.6c-.4,0-.7,1.6-.3,1.6,2.3.6,4,1.6,4,4.7v21.5c0,3-1.6,4-4,4.4-.4,0,0,1.6.3,1.6h14.6c.4,0,.6-1.6.3-1.6-3.1-.4-5.4-1-5.4-4.4v-7c10.7,1.6,18.7-2,18.7-10.6v-.2h0c0-7.6-6.2-10.3-13.7-10.3ZM107.2,281v-12.2c0-2.8.8-3.9,3.9-3.9h0c5,.1,8.6,3.3,8.6,9s-4.3,8.3-12.5,7.1Z"/>
    <path class="st1" d="M149.4,256.7c-.5.7,1.2,2.2,1.9,1.7l6.3-4.8c1.1-.9-2.9-4.6-3.8-3.3l-4.4,6.4h0Z"/>
    <path class="st1" d="M154,296.9c7.7,0,13.4-4.6,13.4-13.5v-15.1c0-3.4,1.9-4.1,3.9-4.4.4,0,.1-1.6-.2-1.6h-10.9c-.4,0-.6,1.6-.3,1.6,2.4.3,4.1,1.2,4.1,4.4v15.4c0,6.8-4.2,9.9-9.5,9.9s-9-3.1-9-9.9v-15.4c0-3.4,1.9-4.1,3.9-4.4.4,0,.1-1.6-.3-1.6h-13.2c-.4,0-.7,1.6-.3,1.6,2.4.3,3.9,1.3,3.9,4.4v15.1c0,9.8,7.6,13.4,14.4,13.4h.1Z"/>
    <path class="st1" d="M201.3,278v-.2h-.2v-.3c3.4-.7,6.1-3.4,6.1-7.3s-5.1-7.9-11.4-7.9-5,.3-8.8.3h-5.8c-.4,0-.6,1.6-.2,1.6,2.1.5,4.1,1.4,4.1,4.5v21.4c0,3.6-2.2,4-5,4.7-.4.1-.1,1.8.3,1.7,2.2-.2,4.5-.3,7.6-.3s6.3.3,8.6.3c8.1,0,13.5-3.9,13.5-9.9s-4.3-8.6-8.8-8.6ZM190.8,268.6c0-2.7.9-3.6,3.4-3.6,4,0,7.1,2.1,7.1,6.7s-2,5.5-5.5,5.5h-5v-8.6ZM196.3,294c-4.2,0-5.6-1.3-5.6-4v-10.4h5c4.5,0,8,2.8,8,8.1s-3.2,6.3-7.4,6.3Z"/>
    <path class="st1" d="M219.7,296.3c4.4-.4,9.7-.3,14.1-.3s6.7.1,9.4.1,5.1-4.9,5.1-7.3-1.3-1-1.6-.5c-1.2,1.8-4.1,5.2-11.4,5.2s-5.2-1-5.2-3.8v-21.4c0-3.4,1.9-4.1,3.9-4.3.3,0,.1-1.6-.2-1.6h-13.3c-.3,0-.6,1.6-.2,1.6,2.1.3,4.1,1,4.1,4.3v21.4c0,3.6-2.2,4-5,4.7-.4.1-.2,1.8.3,1.7h0v.2h0Z"/>
    <path class="st1" d="M257.1,296.2h13.2c.4,0,.7-1.6.3-1.6-2.1-.3-4-1-4-4.3v-21.8c0-3.4,1.9-4.1,4-4.4.4,0,.1-1.6-.3-1.6h-13.2c-.4,0-.7,1.6-.3,1.6,2.5.3,4,1.3,4,4.4v21.8c0,3-1.5,4-4,4.3-.4,0,0,1.6.3,1.6h0Z"/>
    <path class="st1" d="M299.8,296.9c1.5,0,8-2.6,10-5.6.3-.4-.7-1.5-1.1-1.3-2.5,1.6-6.9,2.3-7.8,2.3-6.6,0-14.9-4.5-14.9-15.4s3.4-11.4,10.3-11.4,10.5,6.6,12.2,1.5l.6-1.9c.6-1.7-4.2-3.4-9.8-3.4-13.5,0-18.6,9.9-18.6,18.3,0,12.3,11,17,19.1,17h0Z"/>
    <path class="st1" d="M353.9,294.4h0c-1.9-.2-3.1-1-4.8-5.1l-11.8-27.5c0-.3-3.5.4-3.5.7,0,1.8-.6,3.8-2.5,8.1l-8.1,18.7c-1.8,4.1-2.9,4.8-4.9,5.1-.6,0-.4,1.6.1,1.6h10.4c.6,0,.8-1.5.1-1.6-2.3-.3-4.2-1-2.5-5.1l.5-1.2c.5-1.2,1.3-1.3,2.8-1.3h9.9c1.5,0,2.3,0,2.8,1.3l.5,1.2c1.8,4.1,0,4.8-1.9,5.1-.5,0-.5,1.6,0,1.6h12.7c.6,0,.8-1.6,0-1.6ZM339.3,284.2h-9.1c-.7,0-1.4-.1-1.1-.8l5.7-13.5,5.6,13.5c.3.7-.4.8-1.1.8Z"/>
    <path class="st1" d="M394,262.3c-11.7,0-5.8.3-9.6.3h-6c-.4,0-.6,1.6-.2,1.6,2.1.5,4.1,1.4,4.1,4.5v21.4c0,3.6-2.2,4-5,4.7-.4,0-.2,1.8.3,1.7v-.2s0,0,0,0h0c0,0,0,0,0,0,2.2-.2,4.5-.3,7.5-.3s6.6.3,8.9.3c11.7,0,18-8.4,18-17.7s-6.3-16.3-18-16.3ZM394.4,294h0c-4.7-.1-6.5-1.4-6.5-4v-21.4c0-2.5,1.1-3.5,4.5-3.5,8.7,0,13.7,7.2,13.7,16.5s-3.9,12.4-11.8,12.4Z"/>
    <path class="st1" d="M440,261.6c-10.1,0-17.5,8.1-17.5,17.8s7.4,17.5,17.4,17.5,17.5-8.1,17.5-17.9-7.3-17.4-17.4-17.4ZM441.8,293.6h0c-6.9.1-13.5-7-13.5-16.8s5.6-11.9,9.9-11.9c7,0,13.5,7.1,13.5,16.8s-5.6,11.9-9.9,11.9Z"/>
    <path class="st1" d="M510.1,294.5c-2-.2-3.8-1-4-4.3l-1.5-27.7c0-.8-2-.9-2.4,0l-13,26.1-14-26.1c-.5-.9-2.3-.8-2.4,0l-1.5,27.7c-.2,3.4-1.9,4.1-4,4.3-.4,0-.1,1.6.3,1.6h10c.3,0,.6-1.6.2-1.6-1.5-.2-3.5-1-3.4-4.3l.7-16.5,11.1,21.1c.3.6.8.9,1.5.9s1.8-.3,1.9-.3c.1-.8.9-2.9,1.9-5l7.8-15.9.9,16.2c.1,3-1.4,4-3.4,4.3-.3,0,0,1.6.3,1.6h12.6c.3,0,.6-1.6.2-1.6v-.6h.2,0Z"/>
    <path class="st1" d="M520.1,296.2h13.2c.4,0,.7-1.6.3-1.6-2.1-.3-4-1-4-4.3v-21.8c0-3.4,1.9-4.1,4-4.4.4,0,0-1.6-.3-1.6h-13.2c-.4,0-.7,1.6-.3,1.6,2.5.3,4,1.3,4,4.4v21.8c0,3-1.5,4-4,4.3-.4,0,0,1.6.3,1.6h0Z"/>
    <path class="st1" d="M575,296.6c.8,0,1.5-.2,1.3-.9-.5-1.8-.6-5.3-.6-8.5v-18.8c0-3.4,1.8-3.8,4-4.4.4-.1,0-1.6-.2-1.6h-11.4c-.5,0-.7,1.5-.3,1.6,2.5.6,4.7,1,4.7,4.4v18.1l-22.5-23.8c-.3-.4-.7-.4-1.2-.4h-3.6c-.7,0-1,.6-1,1.1s.4.5.9,1.1c1.3,1.7,1.8,3.3,1.8,6.8v18.7c0,3.4-1.9,3.8-4,4.5-.4.1-.2,1.6.2,1.6h11.4c.5,0,.7-1.5.3-1.6-2.8-.7-4.7-1.2-4.7-4.5v-18.3l23,24c.5.6,1,.9,1.8.9h0Z"/>
    <path class="st1" d="M589.7,296.2h13.2c.4,0,.7-1.6.3-1.6-2.1-.3-4-1-4-4.3v-21.8c0-3.4,1.9-4.1,4-4.4.4,0,0-1.6-.3-1.6h-13.2c-.4,0-.7,1.6-.3,1.6,2.5.3,4,1.3,4,4.4v21.8c0,3-1.5,4-4,4.3-.4,0,0,1.6.3,1.6h0Z"/>
    <path class="st1" d="M632.5,296.9c1.5,0,8-2.6,10-5.6.3-.4-.7-1.5-1.1-1.3-2.5,1.6-6.9,2.3-7.8,2.3-6.6,0-14.8-4.5-14.8-15.4s3.4-11.4,10.3-11.4,10.5,6.6,12.2,1.5l.6-1.9c.6-1.7-4.2-3.4-9.8-3.4-13.5,0-18.6,9.9-18.6,18.3,0,12.3,11,17,19.1,17h-.1Z"/>
    <path class="st1" d="M686.6,294.4h0c-1.9-.2-3.1-1-4.8-5.1l-11.8-27.5c-.2-.3-3.5.4-3.5.7,0,1.8-.6,3.8-2.5,8.1l-8.2,18.7c-1.8,4.1-2.9,4.8-4.9,5.1-.6,0-.4,1.6.2,1.6h10.4c.6,0,.8-1.5.2-1.6-2.3-.3-4.2-1-2.5-5.1l.5-1.2c.5-1.2,1.3-1.3,2.8-1.3h9.8c1.5,0,2.3,0,2.8,1.3l.5,1.2c1.8,4.1-.2,4.8-1.9,5.1-.5,0-.5,1.6.2,1.6h12.7c.6,0,.8-1.6,0-1.6ZM672.1,284.2h-9.2c-.7,0-1.4-.1-1.1-.8l5.7-13.5,5.7,13.5c.3.7-.4.8-1.1.8Z"/>
    <path class="st1" d="M727.6,296.6c.8,0,1.5-.2,1.3-.9-.5-1.8-.6-5.3-.6-8.5v-18.8c0-3.4,1.8-3.8,4-4.4.4-.1,0-1.6-.2-1.6h-11.4c-.5,0-.7,1.5-.3,1.6,2.5.6,4.7,1,4.7,4.4v18.1l-22.5-23.8c-.3-.4-.7-.4-1.2-.4h-3.6c-.7,0-1,.6-1,1.1s.4.5.9,1.1c1.3,1.7,1.8,3.3,1.8,6.8v18.7c0,3.4-1.9,3.8-4,4.5-.4.1-.2,1.6.2,1.6h11.4c.5,0,.7-1.5.3-1.6-2.8-.7-4.7-1.2-4.7-4.5v-18.3l23,24c.5.6,1,.9,1.8.9h0Z"/>
    <path class="st1" d="M775.7,294.4h0c-1.9-.2-3.1-1-4.8-5.1l-11.8-27.5c-.2-.3-3.5.4-3.5.7,0,1.8-.6,3.8-2.5,8.1l-8.2,18.7c-1.8,4.1-2.9,4.8-4.9,5.1-.6,0-.4,1.6.2,1.6h10.4c.6,0,.8-1.5.2-1.6-2.3-.3-4.2-1-2.5-5.1l.5-1.2c.5-1.2,1.3-1.3,2.8-1.3h9.8c1.5,0,2.3,0,2.8,1.3l.5,1.2c1.8,4.1-.2,4.8-1.9,5.1-.5,0-.5,1.6.2,1.6h12.7c.6,0,.8-1.6,0-1.6ZM761.1,284.2h-9.2c-.7,0-1.4-.1-1.1-.8l5.7-13.5,5.7,13.5c.3.7-.4.8-1.1.8Z"/>
  </g>
  <g>
    <path class="st0" d="M231.7,239.2c-1.7.7-3.6,1.1-5.7,1.1s-3.7-.3-5.3-1-2.9-1.6-4-2.7c-1.1-1.2-1.9-2.5-2.5-4.1s-.9-3.2-.9-5,.3-3.4.9-4.9c.6-1.6,1.5-2.9,2.5-4.1,1.1-1.2,2.4-2.1,3.9-2.8s3.2-1,5.1-1,2,0,2.9.2c.9.1,1.7.4,2.4.6.7.3,1.5.6,2.1,1,.7.4,1.3.9,1.9,1.4l-1.8,2.1c-.5-.4-1-.8-1.5-1.2-.5-.3-1.1-.6-1.7-.9-.6-.2-1.3-.5-2-.6s-1.5-.2-2.4-.2c-1.4,0-2.6.3-3.8.8s-2.2,1.3-3,2.2-1.5,2-2,3.3-.7,2.6-.7,4,.2,2.9.7,4.2,1.1,2.4,2,3.3c.9.9,1.9,1.7,3.1,2.2,1.2.5,2.6.8,4.1.8s2.8-.2,4-.7c1.3-.5,2.3-1.1,3.2-1.8v-6.2h-7.6v-2.5h10.3v9.9c-1.2,1-2.6,1.9-4.3,2.7"/>
    <path class="st0" d="M269.1,232.4c-.6,1.5-1.5,2.9-2.6,4.1-1.1,1.2-2.4,2.1-4,2.8s-3.3,1-5.2,1-3.6-.3-5.2-1c-1.5-.7-2.9-1.6-4-2.8s-2-2.5-2.6-4.1c-.6-1.5-.9-3.2-.9-4.9s.3-3.4.9-4.9c.6-1.5,1.5-2.9,2.6-4.1,1.1-1.2,2.4-2.1,4-2.8s3.3-1,5.2-1,3.6.3,5.2,1c1.5.7,2.9,1.6,4,2.8s2,2.5,2.6,4.1.9,3.2.9,4.9-.3,3.4-.9,4.9M266.4,223.5c-.5-1.2-1.2-2.3-2-3.3s-1.9-1.7-3.1-2.2-2.5-.8-3.9-.8-2.7.3-3.9.8-2.2,1.3-3.1,2.2c-.9.9-1.5,2-2,3.2s-.7,2.6-.7,4,.2,2.8.7,4,1.2,2.3,2,3.3,1.9,1.7,3.1,2.2,2.5.8,3.9.8,2.7-.3,3.9-.8,2.2-1.3,3.1-2.2,1.5-2,2-3.3.7-2.6.7-4-.2-2.8-.7-4"/>
    <path class="st0" d="M293.3,215.5c1,.3,1.8.7,2.6,1.2s1.2,1.2,1.6,2,.6,1.6.6,2.6-.1,1.6-.3,2.2c-.2.6-.5,1.2-.9,1.6-.4.5-.8.9-1.3,1.2s-.9.6-1.4.8c.7.2,1.4.5,2.1.8s1.2.7,1.7,1.2.9,1,1.1,1.7c.3.7.4,1.4.4,2.3s-.2,2-.6,2.9-1,1.6-1.8,2.2c-.8.6-1.7,1-2.9,1.3s-2.3.5-3.7.5h-11v-24.9h10.6c1.2,0,2.3.1,3.3.4M293.6,225c1.1-.8,1.6-1.9,1.6-3.4s-.5-2.3-1.4-3-2.3-1.1-4.1-1.1h-7.6v8.6h7.3c1.7,0,3-.4,4.1-1.1M295,236.2c1.1-.8,1.6-1.9,1.6-3.3s-.6-2.5-1.7-3.2-2.8-1.1-4.9-1.1h-7.8v8.8h8.3c1.9,0,3.4-.4,4.5-1.2"/>
    <rect class="st0" x="308.6" y="215" width="2.8" height="24.9"/>
    <polygon class="st0" points="340.1 217.6 324.9 217.6 324.9 226.1 338.5 226.1 338.5 228.6 324.9 228.6 324.9 237.4 340.3 237.4 340.3 239.9 322.1 239.9 322.1 215 340.1 215 340.1 217.6"/>
    <path class="st0" d="M366.5,239.9l-7.2-9.7h-7.1v9.7h-2.8v-24.9h10.7c1.4,0,2.6.2,3.7.5,1.1.4,2,.9,2.8,1.5s1.4,1.4,1.8,2.4c.4.9.6,1.9.6,3s-.2,2-.5,2.8-.8,1.5-1.4,2.1-1.3,1.1-2.2,1.5-1.7.7-2.7.9l7.6,10.2h-3.4.1ZM364.6,218.9c-1.1-.9-2.7-1.3-4.7-1.3h-7.7v10.1h7.7c.9,0,1.8-.1,2.6-.4s1.5-.6,2-1c.6-.4,1-1,1.3-1.6s.5-1.4.5-2.2c0-1.6-.6-2.8-1.7-3.7"/>
    <polygon class="st0" points="396.7 215 399.5 215 399.5 239.9 397.2 239.9 381.2 219.5 381.2 239.9 378.4 239.9 378.4 215 381.1 215 396.7 235 396.7 215"/>
    <path class="st0" d="M433.3,232.4c-.6,1.5-1.5,2.9-2.6,4.1-1.1,1.2-2.5,2.1-4,2.8-1.6.7-3.3,1-5.2,1s-3.6-.3-5.2-1c-1.5-.7-2.9-1.6-4-2.8s-2-2.5-2.6-4.1c-.6-1.5-.9-3.2-.9-4.9s.3-3.4.9-4.9,1.5-2.9,2.6-4.1c1.1-1.2,2.5-2.1,4-2.8s3.3-1,5.2-1,3.6.3,5.2,1c1.5.7,2.9,1.6,4,2.8s2,2.5,2.6,4.1.9,3.2.9,4.9-.3,3.4-.9,4.9M430.6,223.5c-.5-1.2-1.2-2.3-2-3.3s-1.9-1.7-3.1-2.2-2.5-.8-3.9-.8-2.7.3-3.9.8-2.2,1.3-3.1,2.2-1.5,2-2,3.2-.7,2.6-.7,4,.2,2.8.7,4,1.2,2.3,2,3.3,1.9,1.7,3.1,2.2,2.5.8,3.9.8,2.7-.3,3.9-.8,2.2-1.3,3.1-2.2,1.5-2,2-3.3.7-2.6.7-4-.2-2.8-.7-4"/>
    <path class="st0" d="M478.5,232.4c-.6,1.5-1.5,2.9-2.7,4s-2.6,2-4.2,2.6-3.4,1-5.4,1h-8.6v-24.9h8.6c1.9,0,3.7.3,5.4.9,1.6.6,3,1.5,4.2,2.6s2.1,2.4,2.7,3.9,1,3.2,1,4.9-.3,3.4-1,4.9M475.8,223.6c-.5-1.2-1.2-2.3-2.1-3.2s-2-1.6-3.2-2.1c-1.3-.5-2.7-.8-4.3-.8h-5.8v19.7h5.8c1.6,0,3-.2,4.3-.7s2.4-1.2,3.2-2.1c.9-.9,1.6-1.9,2.1-3.1s.7-2.5.7-3.9-.2-2.7-.7-3.9"/>
    <polygon class="st0" points="506.7 217.6 491.6 217.6 491.6 226.1 505.2 226.1 505.2 228.6 491.6 228.6 491.6 237.4 506.9 237.4 506.9 239.9 488.8 239.9 488.8 215 506.7 215 506.7 217.6"/>
    <polygon class="st0" points="530 215 532.8 215 532.8 237.3 546.8 237.3 546.8 239.9 530 239.9 530 215"/>
    <path class="st0" d="M578.6,239.9h-3l-2.9-6.6h-13.5l-2.9,6.6h-2.9l11.3-25.1h2.6l11.3,25.1h0ZM565.9,218.1l-5.7,12.7h11.3l-5.6-12.7h0Z"/>
  </g>
</svg>